<svg width="32" height="32" version="1.1" viewBox="0 0 32 32" xmlns="http://www.w3.org/2000/svg">
 <rect x="0" y="0" width="32" height="32" fill="#fff"/>
 <path d="m0 16v-16h32v32h-32zm12.311 6.7969c-0.0014-0.17195-0.16948-0.39836-1.0951-1.4753l-1.0935-1.2721 0.04128-3.4779c0.0227-1.9128 0.04667-3.4848 0.05326-3.4933 0.0066-0.0085 1.0349 2.2217 2.2851 4.956l2.2731 4.9714 0.55439-0.03708 4.0144-10.12 0.03426 8.2449-0.20463 0.18152c-0.11255 0.09983-0.49463 0.46026-0.84907 0.80095-0.48859 0.46963-0.63974 0.65245-0.625 0.75598l0.01944 0.13655 7.0938 0.03228v-0.21084c0-0.18943-0.08248-0.28845-0.8125-0.97532l-0.8125-0.76448 0.0042-10.644 0.81348-0.68402c0.78674-0.66154 0.81286-0.69132 0.7948-0.90625l-0.018731-0.22223-4.8958-0.032691-1.732 4.3601c-0.95262 2.3981-1.7499 4.3802-1.7718 4.4048-0.02189 0.0246-0.93131-1.9301-2.0209-4.3438l-1.9811-4.3885-5.2545-0.032607v0.25028c0 0.22968 0.074624 0.34138 0.90625 1.3566l0.90625 1.1063v8.7915l-0.90536 1.2328c-0.783 1.0662-0.90548 1.2644-0.90625 1.4671l-8.95e-4 0.23438h5.1875z"/>
</svg>
