<svg width="32" height="32" viewBox="0 0 32 32" fill="none" xmlns="http://www.w3.org/2000/svg"><rect x="0" y="0" width="32" height="32" fill="#fff" /><path d="m0 0v32h32V0zm26.586 7.5786-1.7143 1.6429c-.15.11429-.22143.3-.19286.47857v12.093c-.02857.18571.04286.37143.19286.47857l1.6786 1.6429v.36429h-8.4286v-.35l1.7357-1.6857c.17143-.17143.17143-.22143.17143-.47857v-9.7786l-4.8286 12.257h-.65l-5.6214-12.257v8.2143c-.05.34286.071429.69286.31429.94286l2.2571 2.7357v.36429h-6.4143v-.36429l2.2571-2.7357c.24286-.25.35-.6.29286-.94286v-9.5c.028571-.26429-.071429-.52143-.27143-.7l-2.0071-2.4214v-.36429h6.2357l4.8143 10.571 4.2357-10.564h5.9429z" fill="#000" /></svg>