<svg width="32" height="32" version="1.1" viewBox="0 0 8.4706 8.4706" xmlns="http://www.w3.org/2000/svg">
 <style>
   #path1 { fill: #000; }
  @media (prefers-color-scheme: dark) {
   #path1 { fill: #f5f5f5; }
   #path2 { fill: #111; }
  }
 </style>
 <path id="path1" d="m8.4706 4.2353a4.2353 4.2353 0 0 1-4.2353 4.2353 4.2353 4.2353 0 0 1-4.2353-4.2353 4.2353 4.2353 0 0 1 4.2353-4.2353 4.2353 4.2353 0 0 1 4.2353 4.2353z"/>
 <path id="path2" d="m2.397 3.1038c0.0059765-0.058769-0.016933-0.11754-0.060761-0.15738l-0.44923-0.54187v-0.080682h1.3965l1.0797 2.3677 0.94926-2.3677h1.3318v0.080682l-0.38449 0.36855c-0.03287 0.024902-0.049804 0.066737-0.042831 0.10758v2.7093c-0.00697 0.040839 0.00996 0.082674 0.042831 0.10758l0.37552 0.36855v0.080682h-1.8896v-0.080682l0.38947-0.37751c0.037851-0.037851 0.037851-0.049804 0.037851-0.10758v-2.1894l-1.0827 2.7482h-0.14642l-1.259-2.7482v1.8417c-0.010957 0.077694 0.014941 0.15539 0.069725 0.21117l0.50601 0.61358v0.080683h-1.4344v-0.079687l0.50601-0.61458c0.053788-0.055781 0.07869-0.13447 0.064745-0.21117z" fill="#fff"/>
</svg>
