<?xml version="1.0" encoding="UTF-8"?>
<svg width="32" height="32" version="1.1" viewBox="0 0 32 32" xmlns="http://www.w3.org/2000/svg">
  <style>
  @media (prefers-color-scheme: dark) {
    path { fill: #FFFFFF; }
  }
  </style>
  <path d="m0 0v32h32v-32zm26.586 7.5786-1.7143 1.6429c-0.15 0.11429-0.22143 0.3-0.19286 0.47857v12.093c-0.02857 0.18571 0.04286 0.37143 0.19286 0.47857l1.6786 1.6429v0.36429h-8.4286v-0.35l1.7357-1.6857c0.17143-0.17143 0.17143-0.22143 0.17143-0.47857v-9.7786l-4.8286 12.257h-0.65l-5.6214-12.257v8.2143c-0.05 0.34286 0.071429 0.69286 0.31429 0.94286l2.2571 2.7357v0.36429h-6.4143v-0.36429l2.2571-2.7357c0.24286-0.25 0.35-0.6 0.29286-0.94286v-9.5c0.028571-0.26429-0.071429-0.52143-0.27143-0.7l-2.0071-2.4214v-0.36429h6.2357l4.8143 10.571 4.2357-10.564h5.9429z"/>
</svg>
