<svg width="850" height="850" version="1.1" viewBox="0 0 850 850" xmlns="http://www.w3.org/2000/svg">
 <path d="m401.5 849.33c-66.836-4.1233-130.8-23.116-188.08-55.845-15.278-8.7295-39.491-25.241-54.417-37.108-17.394-13.829-51.432-47.858-65.395-65.378-19.68-24.694-37.387-52.862-51.188-81.431-71.216-147.42-51.4-321.85 51.188-450.57 13.963-17.52 48.001-51.55 65.395-65.378 73.708-58.6 160.71-90.418 255-93.256 99.407-2.9914 197.69 30.128 277.19 93.405 17.219 13.706 51.364 47.864 65.204 65.229 43.335 54.375 72.961 118.65 85.965 186.5 19.008 99.175 1.6244 202.7-48.875 291.08-8.7295 15.278-25.241 39.491-37.108 54.417-13.829 17.394-47.858 51.432-65.378 65.395-68.655 54.716-150.05 86.317-238.5 92.594-12.863 0.9128-38.916 1.0876-51 0.3421zm264.5-236.44c0-4.0292-0.41505-4.5176-21.031-24.75l-21.031-20.64 0.03124-142.44 0.03123-142.44 8.75-8.5723c4.8125-4.7148 14.488-14.119 21.5-20.899 12.059-11.659 12.75-12.539 12.75-16.238v-3.9116h-133.78l-6.1713 15.25c-3.3942 8.3875-24.631 61.375-47.193 117.75-22.562 56.375-41.328 102.82-41.701 103.21-0.37362 0.39073-24.975-52.595-54.669-117.75l-53.99-118.46-140.5-0.00628v3.9538c0 3.6932 1.6081 5.8928 24.394 33.368 13.417 16.178 24.891 30.343 25.499 31.479 0.78734 1.4712 1.1212 35.393 1.1616 118.03 0.048 98.185-0.16162 116.48-1.3672 119.32-0.78318 1.8432-13.633 18.148-28.556 36.233-25.168 30.501-27.132 33.161-27.132 36.75v3.8688h144l-0.0226-4.25c-0.0217-4.0768-1.1324-5.5957-27.25-37.265-14.975-18.158-27.902-34.358-28.727-36-1.2966-2.5806-1.5372-16.115-1.7741-99.809-0.15074-53.253 0.0784-96.606 0.50921-96.34 0.4308 0.26625 28.904 61.938 63.274 137.05l62.491 136.56 15.067 0.0502 107.93-274 0.25435 111.65c0.23922 105.01 0.15005 111.81-1.5 114.3-0.96489 1.4567-10.529 11.178-21.254 21.602-18.748 18.223-19.512 19.117-19.805 23.203l-0.30479 4.25h190.11z"/>
</svg>
