<?xml version="1.0" encoding="UTF-8"?>
<svg width="448" height="448" version="1.1" viewBox="0 0 448 448" xmlns="http://www.w3.org/2000/svg">
 <path d="m0 0v448h448v-448zm372.2 106.1-24 23c-2.1 1.6-3.1 4.2-2.7 6.7v169.3c-0.4 2.6 0.6 5.2 2.7 6.7l23.5 23v5.1h-118v-4.9l24.3-23.6c2.4-2.4 2.4-3.1 2.4-6.7v-136.9l-67.6 171.6h-9.1l-78.7-171.6v115c-0.7 4.8 1 9.7 4.4 13.2l31.6 38.3v5.1h-89.8v-5.1l31.6-38.3c3.4-3.5 4.9-8.4 4.1-13.2v-133c0.4-3.7-1-7.3-3.8-9.8l-28.1-33.9v-5.1h87.3l67.4 148 59.3-147.9h83.2z"/>
</svg>
