<svg width="850" height="850" version="1.1" viewBox="0 0 225 225" xmlns="http://www.w3.org/2000/svg">
 <style>
  #path1 { fill: #000; }
  @media (prefers-color-scheme: dark) {
   #path1 { fill: #f5f5f5; }
   #path2 { fill: #111; }
  }
 </style>
 <path id="path1" d="m225 112.5a112.5 112.5 0 0 1-112.5 112.5 112.5 112.5 0 0 1-112.5-112.5 112.5 112.5 0 0 1 112.5-112.5 112.5 112.5 0 0 1 112.5 112.5z"/>
 <path id="path2" d="m63.671 82.443c0.15875-1.561-0.44979-3.1221-1.614-4.1804l-11.933-14.393v-2.1431h37.095l28.681 62.891 25.215-62.891h35.375v2.1431l-10.213 9.7896c-0.87312 0.66146-1.3229 1.7727-1.1377 2.8575v71.967c-0.18521 1.0848 0.26458 2.196 1.1377 2.8575l9.9748 9.7896v2.1431h-50.191v-2.1431l10.345-10.028c1.0054-1.0054 1.0054-1.3229 1.0054-2.8575v-58.155l-28.76 72.999h-3.8894l-33.443-72.999v48.921c-0.29105 2.0638 0.39687 4.1275 1.8521 5.6092l13.441 16.298v2.1431h-38.1v-2.1167l13.441-16.325c1.4288-1.4817 2.0902-3.5719 1.7198-5.6092z" fill="#fff"/>
</svg>
