<svg width="16" height="16" version="1.1" viewBox="0 0 16 16" xmlns="http://www.w3.org/2000/svg">
 <rect opacity="0" x="0" y="0" width="16" height="16"/>
 <path d="m0 8v-8h16v16h-16zm6.1554 3.3984c-7e-4 -0.08598-0.084739-0.19918-0.54757-0.73763l-0.54674-0.63606 0.02064-1.7389c0.01135-0.95641 0.023335-1.7424 0.02663-1.7466 0.0033-0.00425 0.51744 1.1109 1.1425 2.478l1.1365 2.4857 0.2772-0.0186 2.0072-5.0599 0.00856 2.0612 0.00857 2.0612-0.10232 0.09076c-0.056274 0.04992-0.24731 0.23013-0.42453 0.40047-0.24429 0.23481-0.31987 0.32623-0.3125 0.37799l0.00972 0.06828 3.5469 0.0162v-0.10542c0-0.09472-0.04124-0.14422-0.40625-0.48766l-0.40625-0.38224 1e-3 -2.661 0.0011-2.661 0.40674-0.34201c0.39337-0.33078 0.40643-0.34567 0.3974-0.45313l-0.009365-0.11112-2.4479-0.016346-0.86601 2.18c-0.47631 1.199-0.87497 2.1901-0.88591 2.2024-0.010945 0.0123-0.46565-0.96504-1.0105-2.1719l-0.99057-2.1942-2.6272-0.016303v0.12514c0 0.11484 0.037312 0.17069 0.45312 0.67828l0.45312 0.55314v4.3957l-0.45268 0.61638c-0.3915 0.53308-0.45274 0.63222-0.45312 0.73357l-4.475e-4 0.11719h2.5938z"/>
</svg>
