<svg width="16" height="16" version="1.1" viewBox="0 0 16 16" xmlns="http://www.w3.org/2000/svg">
 <path d="m7.6844 16.169c-1.2585-0.07765-2.4629-0.43532-3.5414-1.0517-0.28767-0.16439-0.74359-0.47534-1.0246-0.69882-0.32752-0.26043-0.96843-0.90127-1.2313-1.2312-0.37056-0.46504-0.70397-0.9955-0.96383-1.5335-1.3409-2.7762-0.96782-6.0611 0.96383-8.4852 0.26291-0.32994 0.90382-0.97079 1.2313-1.2312 1.3879-1.1036 3.0261-1.7028 4.8015-1.7562 1.8718-0.056334 3.7224 0.56737 5.2193 1.759 0.32422 0.25811 0.96715 0.90138 1.2277 1.2284 0.81597 1.024 1.3738 2.2344 1.6187 3.5122 0.35791 1.8677 0.03059 3.8173-0.92028 5.4816-0.16437 0.28772-0.47527 0.7437-0.69872 1.0248-0.26039 0.32756-0.90113 0.96857-1.231 1.2315-1.2927 1.0304-2.8253 1.6255-4.4908 1.7437-0.2422 0.01719-0.73276 0.02048-0.96029 0.0064zm4.9803-4.4527c0-0.07588-0.0078-0.08508-0.396-0.46609l-0.396-0.38869 5.88e-4 -2.6824 5.87e-4 -2.6824 0.16476-0.16143c0.09062-0.088789 0.2728-0.26589 0.40483-0.39357 0.22706-0.21956 0.24007-0.23614 0.24007-0.3058v-0.073664h-2.519l-0.1162 0.28719c-0.06391 0.15795-0.46378 1.1558-0.88861 2.2175-0.42483 1.0617-0.77818 1.9363-0.7852 1.9437-0.00704 0.0073583-0.47026-0.99047-1.0294-2.2175l-1.0166-2.2308-2.6455-1.13e-4v0.074458c0 0.069551 0.030279 0.11097 0.45932 0.62839 0.25263 0.30467 0.46868 0.57142 0.48013 0.59282 0.014825 0.027706 0.021111 0.66652 0.021872 2.2228 9.038e-4 1.849-0.00304 2.1936-0.025743 2.247-0.014747 0.03471-0.2567 0.34176-0.53769 0.68234-0.4739 0.5744-0.51088 0.62449-0.51088 0.69208v0.07286h2.7114l-4.255e-4 -0.08004c-4.086e-4 -0.076773-0.021322-0.10538-0.5131-0.70178-0.28197-0.34195-0.52537-0.64703-0.54091-0.67796-0.024414-0.0486-0.028944-0.30348-0.033405-1.8796-0.00284-1.0029 0.00148-1.8193 0.00959-1.8143 0.00811 0.00501 0.54424 1.1664 1.1914 2.5809l1.1767 2.5717 0.2837 9.45e-4 2.0322-5.16 0.00479 2.1026c0.0045 1.9776 0.00283 2.1056-0.028244 2.1525-0.018168 0.02743-0.19825 0.2105-0.4002 0.40681-0.35301 0.34318-0.3674 0.36001-0.37291 0.43696l-0.00574 0.08004h3.5796z"/>
</svg>
