<?xml version="1.0" standalone="no"?>
<!DOCTYPE svg PUBLIC "-//W3C//DTD SVG 20010904//EN"
 "http://www.w3.org/TR/2001/REC-SVG-20010904/DTD/svg10.dtd">
<svg version="1.0" xmlns="http://www.w3.org/2000/svg"
 width="512.000000pt" height="512.000000pt" viewBox="0 0 512.000000 512.000000"
 preserveAspectRatio="xMidYMid meet">
<metadata>
Created by potrace 1.11, written by Peter Selinger 2001-2013
</metadata>
<g transform="translate(0.000000,512.000000) scale(0.100000,-0.100000)"
fill="#000000" stroke="none">
<path d="M0 2560 l0 -2560 2560 0 2560 0 0 2560 0 2560 -2560 0 -2560 0 0
-2560z m2300 477 c207 -459 318 -694 323 -685 5 7 131 321 281 698 l272 685
397 3 397 2 0 -33 c0 -31 -11 -43 -117 -133 -64 -54 -123 -104 -130 -109 -11
-8 -13 -166 -14 -860 l0 -850 131 -125 c115 -111 130 -129 130 -157 l0 -33
-565 0 c-503 0 -566 2 -572 16 -10 25 7 46 139 170 l128 119 0 665 0 665 -324
-815 -324 -815 -44 -3 -44 -3 -363 796 c-200 437 -365 794 -366 793 -1 -2 -5
-253 -9 -559 l-7 -556 176 -206 c148 -174 176 -211 173 -234 l-3 -28 -412 -3
-413 -2 0 36 c0 31 21 66 145 235 l145 199 0 704 0 703 -145 177 c-124 152
-145 183 -145 212 l0 34 422 -2 422 -3 316 -698z"/>
</g>
</svg>
