<?xml version="1.0" standalone="no"?>
<!DOCTYPE svg PUBLIC "-//W3C//DTD SVG 20010904//EN"
 "http://www.w3.org/TR/2001/REC-SVG-20010904/DTD/svg10.dtd">
<svg version="1.0" xmlns="http://www.w3.org/2000/svg"
 width="390.000000pt" height="390.000000pt" viewBox="0 0 390.000000 390.000000"
 preserveAspectRatio="xMidYMid meet">
<metadata>
Created by potrace 1.11, written by Peter Selinger 2001-2013
</metadata>
<g transform="translate(0.000000,390.000000) scale(0.100000,-0.100000)"
fill="#000000" stroke="none">
<path d="M0 1950 l0 -1950 1950 0 1950 0 0 1950 0 1950 -1950 0 -1950 0 0
-1950z m1820 348 c69 -257 127 -468 130 -468 3 0 56 190 119 423 63 232 120
443 128 470 l14 47 384 0 385 0 0 -119 0 -118 -50 -5 c-34 -4 -59 -13 -75 -28
l-25 -23 0 -527 0 -527 25 -23 c16 -15 41 -24 75 -28 l50 -5 0 -118 0 -119
-370 0 -370 0 0 120 0 119 78 3 77 3 2 535 c1 332 -2 527 -7 515 -6 -11 -86
-299 -180 -640 -94 -341 -173 -628 -176 -638 -5 -16 -19 -17 -147 -15 l-141 3
-176 648 c-97 356 -180 650 -184 654 -3 4 -5 -234 -4 -528 l3 -534 78 -3 77
-3 0 -119 0 -120 -310 0 -310 0 0 119 0 118 50 5 c34 4 59 13 75 28 l25 23 0
527 0 527 -25 23 c-16 15 -41 24 -75 28 l-50 5 0 118 0 119 387 -2 387 -3 126
-467z"/>
</g>
</svg>
