<svg version="1.0" xmlns="http://www.w3.org/2000/svg" width="700.000000pt" height="700.000000pt" viewBox="0 0 700.000000 700.000000" preserveAspectRatio="xMidYMid meet">
<metadata>
Created by potrace 1.12, written by Peter Selinger 2001-2015
</metadata>
<g transform="translate(0.000000,700.000000) scale(0.100000,-0.100000)" fill="#000000" stroke="none">
<path d="M0 3500 l0 -3500 3500 0 3500 0 0 3500 0 3500 -3500 0 -3500 0 0
-3500z m2984 1638 c7 -18 125 -450 262 -960 137 -511 251 -928 254 -928 4 0
18 46 33 103 30 110 56 206 82 302 10 33 23 84 31 113 32 121 48 179 174 642
72 267 138 508 146 535 8 28 19 70 24 95 6 25 17 63 24 85 l14 40 786 3 786 2
0 -250 0 -250 -85 0 c-104 0 -139 -13 -188 -70 l-37 -44 0 -1056 0 -1057 23
-33 c38 -57 96 -80 199 -80 l88 0 0 -250 0 -250 -752 2 -753 3 0 245 0 245
158 3 157 3 0 1081 c0 640 -4 1078 -9 1073 -8 -9 -33 -91 -66 -220 -13 -51
-95 -348 -161 -580 -20 -71 -42 -152 -49 -180 -7 -27 -30 -108 -50 -180 -20
-71 -43 -152 -50 -180 -7 -27 -32 -117 -55 -200 -23 -82 -48 -172 -55 -200
-16 -60 -97 -354 -155 -560 -57 -203 -68 -242 -81 -295 -7 -25 -17 -48 -23
-52 -6 -4 -132 -8 -281 -8 -148 0 -275 4 -281 8 -6 4 -13 16 -16 27 -17 59
-162 588 -174 633 -8 28 -20 76 -28 105 -8 28 -49 178 -91 332 -42 154 -83
304 -91 333 -8 28 -20 76 -28 105 -8 28 -49 178 -91 332 -42 154 -83 303 -90
330 -44 171 -118 432 -126 445 -5 9 -9 -450 -9 -1067 l0 -1083 155 0 155 0 0
-250 0 -250 -627 2 -628 3 -3 248 -2 247 87 0 c104 0 160 22 198 78 l25 37 0
1056 0 1056 -41 46 c-48 55 -82 67 -191 67 l-78 0 0 250 0 250 786 0 785 0 13
-32z"></path>
</g>
</svg>
