<?xml version="1.0" standalone="no"?>
<!DOCTYPE svg PUBLIC "-//W3C//DTD SVG 20010904//EN"
 "http://www.w3.org/TR/2001/REC-SVG-20010904/DTD/svg10.dtd">
<svg version="1.0" xmlns="http://www.w3.org/2000/svg"
 width="100.000000pt" height="100.000000pt" viewBox="0 0 100.000000 100.000000"
 preserveAspectRatio="xMidYMid meet">
<metadata>
Created by potrace 1.11, written by Peter Selinger 2001-2013
</metadata>
<g transform="translate(0.000000,100.000000) scale(0.100000,-0.100000)"
fill="#000000" stroke="none">
<path d="M200 706 c0 -26 5 -36 20 -41 24 -8 22 8 24 -160 2 -142 -3 -175 -29
-175 -10 0 -15 -11 -15 -35 l0 -35 90 1 90 1 0 33 c0 27 -4 34 -22 37 -22 3
-22 6 -23 145 0 78 3 139 6 135 5 -5 64 -212 73 -257 2 -5 8 -29 15 -53 12
-43 12 -43 54 -40 l42 3 28 100 c15 55 39 138 52 185 l24 85 0 -152 1 -153
-24 0 c-21 0 -24 -4 -22 -32 l3 -33 106 -2 107 -2 0 34 c0 24 -5 35 -15 35
-26 0 -31 32 -29 170 2 169 0 157 24 165 15 5 20 15 20 41 l0 35 -114 -2 -114
-1 -7 -27 c-15 -68 -58 -217 -64 -223 -3 -4 -21 51 -40 122 l-34 130 -113 0
-114 0 0 -34z"/>
</g>
</svg>
