<svg xmlns="http://www.w3.org/2000/svg" width="{{ include.width }}" height="{{ include.height }}" class="{{ include.class }}" viewBox="0 0 512 512" aria-hidden="true" role="img"><path d="M256.55 8C116.52 8 8 110.34 8 248.57c0 72.3 29.71 134.78 78.07 177.94 8.35 7.51 6.63 11.86 8.05 58.23 52.91-23.3 53.59-25.14 62.56-22.7C337.85 521.8 504 423.7 504 248.57 504 110.34 396.59 8 256.55 8zm149.24 185.13-73 115.57-58.08-43.47-78.37 59.44c-10.46 7.93-24.16-4.6-17.11-15.67l73-115.57 58.06 43.46 78.41-59.38c10.44-7.98 24.14 4.54 17.09 15.62z"/></svg>