<svg xmlns="http://www.w3.org/2000/svg" width="{{ include.width }}" height="{{ include.height }}" class="{{ include.class }}" viewBox="0 0 448 512" aria-hidden="true" role="img"><path d="M286.17 419zm111.92-147.6c-9.5-14.62-39.37-52.45-87.26-73.71q-9.1-4.06-18.38-7.27c-12.41-4.1-23.33-6-32.41-5.77-.6-2-1.89-11 9.4-35L198.66 32l-5.48 7.56c-8.69 12.06-16.92 23.55-24.34 34.89-41.53-2.45-39-2.33-41.06-2.33-50.61.0-50.75 52.12-50.75 45.88l-2.36 36.68c-1.61 27 19.75 50.21 47.63 51.85l8.93.54C14 304.66 14 374 14 429.77v33.64l23.32-29.8c5.78 10.13 14.87 9.45 19.64 7.33 4.21-1.87 10-6.92 3.75-20.11l46.82-59.83-24.66 74.11c58.23-42.4 157.38-61.76 236.25-38.59 34.2 10.05 67.45.69 84.74-23.84.72-1 1.2-2.16 1.85-3.22.0 23.3-3.69 52.93-14.88 81.64-2.52 6.46 1.76 14.5 8.6 15.74 7.42 1.57 15.33-3.1 18.37-11.15C429 443 434 414 434 382.32c0-38.58-13-77.46-35.91-110.92zM142.37 128.58l-15.7-.93-1.39 21.79 13.13.78-22.38-1.34L107 119c1-12.17 13.87-11.27 13.26-11.32l29.11 1.73zm148.42 172.18-9.68-11.49-34.42 27-15.78-18.64 34.57-27.18-14.14-16.74-17.09 13.45s-3.72-4.42-3.8-4.53L214 225.19s-18.51-22-18.6-22.14l81.09 96.32zM187.44 419z"/></svg>