<svg xmlns="http://www.w3.org/2000/svg"><symbol id="icon-angle-left" viewBox="0 0 1792 1792"><path d="M1203 544q0 13-10 23L800 960l393 393q10 10 10 23t-10 23l-50 50q-10 10-23 10t-23-10L631 983q-10-10-10-23t10-23l466-466q10-10 23-10t23 10l50 50q10 10 10 23z"/></symbol><symbol id="icon-angle-right" viewBox="0 0 1792 1792"><path d="M1171 960q0 13-10 23l-466 466q-10 10-23 10t-23-10l-50-50q-10-10-10-23t10-23l393-393-393-393q-10-10-10-23t10-23l50-50q10-10 23-10t23 10l466 466q10 10 10 23z"/></symbol><symbol id="icon-chevron-up" viewBox="0 0 1792 1792"><path d="M1683 1331l-166 165q-19 19-45 19t-45-19L896 965l-531 531q-19 19-45 19t-45-19l-166-165q-19-19-19-45.5t19-45.5l742-741q19-19 45-19t45 19l742 741q19 19 19 45.5t-19 45.5z"/></symbol><symbol id="icon-comment" viewBox="0 0 1792 1792"><path d="M1792 896q0 174-120 321.5t-326 233-450 85.5q-70 0-145-8-198 175-460 242-49 14-114 22-17 2-30.5-9t-17.5-29v-1q-3-4-.5-12t2-10 4.5-9.5l6-9 7-8.5 8-9q7-8 31-34.5t34.5-38 31-39.5 32.5-51 27-59 26-76q-157-89-247.5-220T0 896q0-130 71-248.5T262 443t286-136.5T896 256q244 0 450 85.5t326 233T1792 896z"/></symbol><symbol id="icon-envelope-o" viewBox="0 0 1792 1792"><path d="M1664 1504V736q-32 36-69 66-268 206-426 338-51 43-83 67t-86.5 48.5T897 1280h-2q-48 0-102.5-24.5T706 1207t-83-67q-158-132-426-338-37-30-69-66v768q0 13 9.5 22.5t22.5 9.5h1472q13 0 22.5-9.5t9.5-22.5zm0-1051v-24.5l-.5-13-3-12.5-5.5-9-9-7.5-14-2.5H160q-13 0-22.5 9.5T128 416q0 168 147 284 193 152 401 317 6 5 35 29.5t46 37.5 44.5 31.5T852 1143t43 9h2q20 0 43-9t50.5-27.5 44.5-31.5 46-37.5 35-29.5q208-165 401-317 54-43 100.5-115.5T1664 453zm128-37v1088q0 66-47 113t-113 47H160q-66 0-113-47T0 1504V416q0-66 47-113t113-47h1472q66 0 113 47t47 113z"/></symbol><symbol id="icon-envelope" viewBox="0 0 1792 1792"><path d="M1792 710v794q0 66-47 113t-113 47H160q-66 0-113-47T0 1504V710q44 49 101 87 362 246 497 345 57 42 92.5 65.5t94.5 48 110 24.5h2q51 0 110-24.5t94.5-48 92.5-65.5q170-123 498-345 57-39 100-87zm0-294q0 79-49 151t-122 123q-376 261-468 325-10 7-42.5 30.5t-54 38-52 32.5-57.5 27-50 9h-2q-23 0-50-9t-57.5-27-52-32.5-54-38T639 1015q-91-64-262-182.5T172 690q-62-42-117-115.5T0 438q0-78 41.5-130T160 256h1472q65 0 112.5 47t47.5 113z"/></symbol><symbol id="icon-facebook" viewBox="0 0 1792 1792"><path d="M1343 12v264h-157q-86 0-116 36t-30 108v189h293l-39 296h-254v759H734V905H479V609h255V391q0-186 104-288.5T1115 0q147 0 228 12z"/></symbol><symbol id="icon-feed" viewBox="0 0 1792 1792"><path d="M576 1344q0 80-56 136t-136 56-136-56-56-136 56-136 136-56 136 56 56 136zm512 123q2 28-17 48-18 21-47 21H889q-25 0-43-16.5t-20-41.5q-22-229-184.5-391.5T250 902q-25-2-41.5-20T192 839V704q0-29 21-47 17-17 43-17h5q160 13 306 80.5T826 902q114 113 181.5 259t80.5 306zm512 2q2 27-18 47-18 20-46 20h-143q-26 0-44.5-17.5T1329 1476q-12-215-101-408.5t-231.5-336-336-231.5T252 398q-25-1-42.5-19.5T192 335V192q0-28 20-46 18-18 44-18h3q262 13 501.5 120T1186 542q187 186 294 425.5t120 501.5z"/></symbol><symbol id="icon-github" viewBox="0 0 1792 1792"><path d="M896 128q209 0 385.5 103T1561 510.5 1664 896q0 251-146.5 451.5T1139 1625q-27 5-40-7t-13-30q0-3 .5-76.5t.5-134.5q0-97-52-142 57-6 102.5-18t94-39 81-66.5 53-105T1386 856q0-119-79-206 37-91-8-204-28-9-81 11t-92 44l-38 24q-93-26-192-26t-192 26q-16-11-42.5-27T578 459.5 493 446q-45 113-8 204-79 87-79 206 0 85 20.5 150t52.5 105 80.5 67 94 39 102.5 18q-39 36-49 103-21 10-45 15t-57 5-65.5-21.5T484 1274q-19-32-48.5-52t-49.5-24l-20-3q-21 0-29 4.5t-5 11.5 9 14 13 12l7 5q22 10 43.5 38t31.5 51l10 23q13 38 44 61.5t67 30 69.5 7 55.5-3.5l23-4q0 38 .5 88.5t.5 54.5q0 18-13 30t-40 7q-232-77-378.5-277.5T128 896q0-209 103-385.5T510.5 231 896 128zM419 1231q3-7-7-12-10-3-13 2-3 7 7 12 9 6 13-2zm31 34q7-5-2-16-10-9-16-3-7 5 2 16 10 10 16 3zm30 45q9-7 0-19-8-13-17-6-9 5 0 18t17 7zm42 42q8-8-4-19-12-12-20-3-9 8 4 19 12 12 20 3zm57 25q3-11-13-16-15-4-19 7t13 15q15 6 19-6zm63 5q0-13-17-11-16 0-16 11 0 13 17 11 16 0 16-11zm58-10q-2-11-18-9-16 3-14 15t18 8 14-14z"/></symbol><symbol id="icon-google-plus" viewBox="0 0 2304 1792"><path d="M1437 913q0 208-87 370.5t-248 254-369 91.5q-149 0-285-58t-234-156-156-234T0 896t58-285 156-234 234-156 285-58q286 0 491 192l-199 191Q908 433 733 433q-123 0-227.5 62T340 663.5 279 896t61 232.5T505.5 1297t227.5 62q83 0 152.5-23t114.5-57.5 78.5-78.5 49-83 21.5-74H733V791h692q12 63 12 122zm867-122v210h-209v209h-210v-209h-209V791h209V582h210v209h209z"/></symbol><symbol id="icon-instagram" viewBox="0 0 1792 1792"><path d="M1152 896q0-106-75-181t-181-75-181 75-75 181 75 181 181 75 181-75 75-181zm138 0q0 164-115 279t-279 115-279-115-115-279 115-279 279-115 279 115 115 279zm108-410q0 38-27 65t-65 27-65-27-27-65 27-65 65-27 65 27 27 65zM896 266q-7 0-76.5-.5t-105.5 0-96.5 3-103 10T443 297q-50 20-88 58t-58 88q-11 29-18.5 71.5t-10 103-3 96.5 0 105.5.5 76.5-.5 76.5 0 105.5 3 96.5 10 103T297 1349q20 50 58 88t88 58q29 11 71.5 18.5t103 10 96.5 3 105.5 0 76.5-.5 76.5.5 105.5 0 96.5-3 103-10 71.5-18.5q50-20 88-58t58-88q11-29 18.5-71.5t10-103 3-96.5 0-105.5-.5-76.5.5-76.5 0-105.5-3-96.5-10-103T1495 443q-20-50-58-88t-88-58q-29-11-71.5-18.5t-103-10-96.5-3-105.5 0-76.5.5zm768 630q0 229-5 317-10 208-124 322t-322 124q-88 5-317 5t-317-5q-208-10-322-124t-124-322q-5-88-5-317t5-317q10-208 124-322t322-124q88-5 317-5t317 5q208 10 322 124t124 322q5 88 5 317z"/></symbol><symbol id="icon-key" viewBox="0 0 1792 1792"><path d="M832 512q0-80-56-136t-136-56-136 56-56 136q0 42 19 83-41-19-83-19-80 0-136 56t-56 136 56 136 136 56 136-56 56-136q0-42-19-83 41 19 83 19 80 0 136-56t56-136zm851 704q0 17-49 66t-66 49q-9 0-28.5-16t-36.5-33-38.5-40-24.5-26l-96 96 220 220q28 28 28 68 0 42-39 81t-81 39q-40 0-68-28l-671-671q-176 131-365 131-163 0-265.5-102.5T0 784q0-160 95-313t248-248 313-95q163 0 265.5 102.5T1024 496q0 189-131 365l355 355 96-96q-3-3-26-24.5t-40-38.5-33-36.5-16-28.5q0-17 49-66t66-49q13 0 23 10 6 6 46 44.5t82 79.5 86.5 86 73 78 28.5 41z"/></symbol><symbol id="icon-link" viewBox="0 0 32 32"><title>link</title><path d="M13.757 19.868a1.62 1.62 0 0 1-1.149-.476c-2.973-2.973-2.973-7.81 0-10.783l6-6C20.048 1.169 21.963.376 24 .376s3.951.793 5.392 2.233c2.973 2.973 2.973 7.81 0 10.783l-2.743 2.743a1.624 1.624 0 1 1-2.298-2.298l2.743-2.743a4.38 4.38 0 0 0 0-6.187c-.826-.826-1.925-1.281-3.094-1.281s-2.267.455-3.094 1.281l-6 6a4.38 4.38 0 0 0 0 6.187 1.624 1.624 0 0 1-1.149 2.774z"/><path d="M8 31.625a7.575 7.575 0 0 1-5.392-2.233c-2.973-2.973-2.973-7.81 0-10.783l2.743-2.743a1.624 1.624 0 1 1 2.298 2.298l-2.743 2.743a4.38 4.38 0 0 0 0 6.187c.826.826 1.925 1.281 3.094 1.281s2.267-.455 3.094-1.281l6-6a4.38 4.38 0 0 0 0-6.187 1.624 1.624 0 1 1 2.298-2.298c2.973 2.973 2.973 7.81 0 10.783l-6 6A7.575 7.575 0 0 1 8 31.625z"/></symbol><symbol id="icon-linkedin" viewBox="0 0 1792 1792"><path d="M477 625v991H147V625h330zm21-306q1 73-50.5 122T312 490h-2q-82 0-132-49t-50-122q0-74 51.5-122.5T314 148t133 48.5T498 319zm1166 729v568h-329v-530q0-105-40.5-164.5T1168 862q-63 0-105.5 34.5T999 982q-11 30-11 81v553H659q2-399 2-647t-1-296l-1-48h329v144h-2q20-32 41-56t56.5-52 87-43.5T1285 602q171 0 275 113.5t104 332.5z"/></symbol><symbol id="icon-medium" viewBox="0 0 1792 1792"><path d="M597 421v1173q0 25-12.5 42.5T548 1654q-17 0-33-8L50 1413q-21-10-35.5-33.5T0 1333V193q0-20 10-34t29-14q14 0 44 15l511 256q3 3 3 5zm64 101l534 866-534-266V522zm1131 18v1054q0 25-14 40.5t-38 15.5-47-13l-441-220zm-3-120q0 3-256.5 419.5T1232 1327L842 693l324-527q17-28 52-28 14 0 26 6l541 270q4 2 4 6z"/></symbol><symbol id="icon-pinterest" viewBox="0 0 1792 1792"><path d="M1664 896q0 209-103 385.5T1281.5 1561 896 1664q-111 0-218-32 59-93 78-164 9-34 54-211 20 39 73 67.5t114 28.5q121 0 216-68.5t147-188.5 52-270q0-114-59.5-214T1180 449t-255-63q-105 0-196 29t-154.5 77-109 110.5-67 129.5T377 866q0 104 40 183t117 111q30 12 38-20 2-7 8-31t8-30q6-23-11-43-51-61-51-151 0-151 104.5-259.5T904 517q151 0 235.5 82t84.5 213q0 170-68.5 289T980 1220q-61 0-98-43.5T859 1072q8-35 26.5-93.5t30-103T927 800q0-50-27-83t-77-33q-62 0-105 57t-43 142q0 73 25 122l-99 418q-17 70-13 177-206-91-333-281T128 896q0-209 103-385.5T510.5 231 896 128t385.5 103T1561 510.5 1664 896z"/></symbol><symbol id="icon-search" viewBox="0 0 1792 1792"><path d="M1216 832q0-185-131.5-316.5T768 384 451.5 515.5 320 832t131.5 316.5T768 1280t316.5-131.5T1216 832zm512 832q0 52-38 90t-90 38q-54 0-90-38l-343-342q-179 124-399 124-143 0-273.5-55.5t-225-150-150-225T64 832t55.5-273.5 150-225 225-150T768 128t273.5 55.5 225 150 150 225T1472 832q0 220-124 399l343 343q37 37 37 90z"/></symbol><symbol id="icon-snapchat" viewBox="0 0 1792 1792"><path d="M1407 1148q0-22-22-27-67-15-118-59t-80-108q-7-19-7-25 0-15 19.5-26t43-17 43-20.5T1305 829q0-19-18.5-31.5T1248 785q-12 0-32 8t-31 8q-4 0-12-2 5-95 5-114 0-79-17-114-36-78-103-121.5T906 406q-199 0-275 165-17 35-17 114 0 19 5 114-4 2-14 2-12 0-32-7.5t-30-7.5q-21 0-38.5 12T487 830q0 21 19.5 35.5t43 20.5 43 17 19.5 26q0 6-7 25-64 138-198 167-22 5-22 27 0 46 137 68 2 5 6 26t11.5 30.5 23.5 9.5q12 0 37.5-4.5t39.5-4.5q35 0 67 15t54 32.5 57.5 32.5 76.5 15q43 0 79-15t57.5-32.5 53.5-32.5 67-15q14 0 39.5 4t38.5 4q16 0 23-10t11-30 6-25q137-22 137-68zm257-252q0 209-103 385.5T1281.5 1561 896 1664t-385.5-103T231 1281.5 128 896t103-385.5T510.5 231 896 128t385.5 103T1561 510.5 1664 896z"/></symbol><symbol id="icon-tumblr" viewBox="0 0 1792 1792"><path d="M1328 1329l80 237q-23 35-111 66t-177 32q-104 2-190.5-26T787 1564t-95-106-55.5-120-16.5-118V676H452V461q72-26 129-69.5t91-90 58-102 34-99T779 12q1-5 4.5-8.5T791 0h244v424h333v252h-334v518q0 30 6.5 56t22.5 52.5 49.5 41.5 81.5 14q78-2 134-29z"/></symbol><symbol id="icon-twitter" viewBox="0 0 1792 1792"><path d="M1684 408q-67 98-162 167 1 14 1 42 0 130-38 259.5T1369.5 1125 1185 1335.5t-258 146-323 54.5q-271 0-496-145 35 4 78 4 225 0 401-138-105-2-188-64.5T285 1033q33 5 61 5 43 0 85-11-112-23-185.5-111.5T172 710v-4q68 38 146 41-66-44-105-115t-39-154q0-88 44-163 121 149 294.5 238.5T884 653q-8-38-8-74 0-134 94.5-228.5T1199 256q140 0 236 102 109-21 205-78-37 115-142 178 93-10 186-50z"/></symbol></svg>